# xmcd
# Copyright (c) 1998 CDDB Inc.
#
# Track frame offsets:
#	150
#	74402
#	132778
#
# Disc length: 2785 seconds
#
# Revision: 1
# Processed by: cddbd v1.4b41PL1 Copyright (c) Steve Scherf et al.
# Submitted via: audiograbber 1.80
#
DISCID=250adf03
DTITLE=Godspeed You Black Emperor - f#a# infinity
DYEAR=1900
DGENRE=
TTITLE0=dead flag blues
TTITLE1=east hastings
TTITLE2=providence
EXTD=
EXTT0=
EXTT1=
EXTT2=
PLAYORDER=
